<?xml version="1.0" encoding="utf-8"?>
<!-- Generator: Adobe Illustrator 27.3.0, SVG Export Plug-In . SVG Version: 6.00 Build 0)  -->
<svg version="1.1" id="Layer_1" xmlns="http://www.w3.org/2000/svg" xmlns:xlink="http://www.w3.org/1999/xlink" x="0px" y="0px"
	 width="480px" height="460px" viewBox="0 0 480 460" style="enable-background:new 0 0 480 460;" xml:space="preserve">
<style type="text/css">
	.st0{fill:none;}
	.st1{fill:#81C3AE;}
</style>
<g>
	<rect x="90" y="-12" class="st0" width="300" height="300"/>
	<g>
		<path class="st1" d="M145.9,104.9c4.6,4.1,10.6,6.7,17.3,6.7h2.6c14.2,0,25.9-11.6,25.9-25.9V32.2l0,0v-0.1
			C191.6,17.9,180,6.4,165.8,6.4h-1.4h-0.1h-1.1c-7.7,0-14.6,3.4-19.3,8.8c-4.2,4.5-6.8,10.5-6.8,17.1v53.5
			C137.1,93.4,140.5,100.2,145.9,104.9z"/>
		<path class="st1" d="M164.5,253.9c-3,0-5.4,2.4-5.4,5.4s2.4,5.4,5.4,5.4s5.4-2.4,5.4-5.4S167.5,253.9,164.5,253.9z"/>
		<path class="st1" d="M186.2,269.4c-3,0-5.4,2.4-5.4,5.4s2.4,5.4,5.4,5.4h0.1c3,0,5.4-2.4,5.4-5.4
			C191.6,271.8,189.2,269.4,186.2,269.4z"/>
		<path class="st1" d="M317.1,6.4h-2.6c-14.2,0-25.9,11.6-25.9,25.9v0.2v37.9v5.8c0,20.2-16.8,35.9-37,35.9h-26.4
			c-48.6,0-87.9,37.5-87.9,86.4V244v9.1c0,3.1,2.3,5.4,5.4,5.4s5.4-2.3,5.4-5.4v-25.9c0-3.1,2.3-5.4,5.4-5.4c3.1,0,5.4,2.3,5.4,5.4
			v14.5c0,3.1,2.3,5.4,5.4,5.4c3.1,0,5.4-2.3,5.4-5.4v-24.3c0-3.1,2.3-5.4,5.4-5.4c3.1,0,5.4,2.3,5.4,5.4V257c0,3.1,2.3,5.4,5.4,5.4
			c3.1,0,5.4-2.3,5.4-5.4v-19.4v-39.1c0-20.2,16.3-34.4,36.5-34.4h26.6c12,0,23.3-2.2,33.9-6.9v86c0,14.2,11.6,25.9,25.9,25.9h2.6
			c14.2,0,25.9-11.6,25.9-25.9v-167v-5.8V32.5v-0.3l0,0C342.9,18,331.3,6.4,317.1,6.4z"/>
	</g>
</g>
<g>
	<rect x="71.8" y="321" class="st0" width="336.5" height="82"/>
	<g>
		<path class="st1" d="M149.4,347.7c-5.6,0-9.7,0.8-13.4,2.2c-1.9,0.7-3.2,2.5-3.2,4.6c0,2.7,2.2,4.9,4.9,4.9c0.6,0,1-0.1,1.7-0.3
			c2.3-0.7,4.9-1.2,8.2-1.2c6,0,9,2.7,9,7.7v0.7c-3-1-6-1.7-10.3-1.7c-10,0-17,4.2-17,13.4v0.2c0,8.3,6.5,12.9,14.4,12.9
			c5.8,0,9.8-2.1,12.7-5.3v0.1c0,2.5,2.3,4.9,5.7,4.9c3.2,0,5.8-2.5,5.8-5.7v-19.3c0-5.7-1.4-10.3-4.6-13.4
			C160.7,349.4,155.9,347.7,149.4,347.7z M156.9,375.4c0,4.3-3.8,7.4-9.3,7.4c-3.8,0-6.5-1.9-6.5-5.1v-0.2c0-3.8,3.1-5.8,8.2-5.8
			c2.9,0,5.6,0.6,7.6,1.6V375.4z"/>
		<path class="st1" d="M194.3,347.7c-3.5,0-6.4,3.8-8.1,7.9v-1.9c0-3.3-2.7-6-6-6s-6,2.7-6,6v31.1c0,3.3,2.7,6,6,6s6-2.7,6-6v-11.1
			c0-8.5,3.4-13.1,9.4-14.5c2.4-0.5,4.5-2.4,4.5-5.6C200.1,350.1,198,347.7,194.3,347.7z"/>
		<path class="st1" d="M252,347.4c-5.7,0-10.1,2.4-13.8,6.7c-2.2-4.2-6.4-6.7-11.9-6.7c-6,0-9.7,3.2-12.4,6.8v-0.5c0-3.3-2.7-6-6-6
			s-6,2.7-6,6v31.1c0,3.3,2.7,6,6,6s6-2.7,6-6v-18c0-5.7,2.7-8.6,7.2-8.6s7,2.9,7,8.6v18c0,3.3,2.7,6,6,6s6-2.7,6-6v-18
			c0-5.7,2.7-8.6,7.2-8.6s7,2.9,7,8.6v18c0,3.3,2.7,6,6,6s6-2.7,6-6v-22C266.2,352.7,260.9,347.4,252,347.4z"/>
		<path class="st1" d="M292.9,347.4c-13.1,0-22.8,9.8-22.8,21.9v0.2c0,12.1,9.7,21.7,22.7,21.7c13.1,0,22.8-9.8,22.8-21.9v-0.2
			C315.5,357,305.9,347.4,292.9,347.4z M303.8,369.4c0,6.2-4.1,11.5-10.9,11.5c-6.6,0-11.1-5.4-11.1-11.6v-0.2
			c0-6.2,4.1-11.5,10.9-11.5c6.6,0,11.1,5.4,11.1,11.6V369.4z"/>
		<path class="st1" d="M343.9,347.4c-6,0-9.6,3.2-12.3,6.8v-0.5c0-3.3-2.7-6-6-6s-6,2.7-6,6v31.1c0,3.3,2.7,6,6,6s6-2.7,6-6v-18
			c0-5.7,2.9-8.6,7.5-8.6s7.2,2.9,7.2,8.6v18c0,3.3,2.7,6,6,6s6-2.7,6-6v-21.7C358.2,353.3,353,347.4,343.9,347.4z"/>
		<path class="st1" d="M395,347.7c-3.1,0-4.8,2-5.7,4.6l-8.8,24.4l-9.1-24.5c-1-2.8-2.7-4.5-5.7-4.5c-3.3,0-5.9,2.4-5.9,5.7
			c0,0.8,0.3,2,0.6,2.7l14.4,33.3l-0.4,0.9c-1.1,2.1-2.1,2.5-4.2,2.5c-0.9,0-1.5-0.2-2.5-0.5c-0.5-0.2-1-0.3-2-0.3
			c-2.4,0-4.7,2-4.7,4.9s2,4.3,3.8,4.9c2,0.7,3.8,1.1,6.5,1.1c7.1,0,10.7-3.2,14.2-11.8l14.7-35.2c0.2-0.5,0.5-1.9,0.5-2.8
			C400.8,350,398.2,347.7,395,347.7z"/>
		<path class="st1" d="M124.5,338.7c0-3.1-2.6-5.7-5.7-5.7h-0.6c-3.1,0-5.7,2.6-5.7,5.7v0.1v8.3v1.3v7.6H91.3v-17.2
			c0-3.1-2.6-5.7-5.7-5.7H85c-3.1,0-5.7,2.6-5.7,5.7v36.7v1.3v8.3v0.1l0,0c0,3.1,2.6,5.7,5.7,5.7h0.6c3.1,0,5.7-2.6,5.7-5.7v-0.1
			v-8.3v-1.3v-7.6h21.2v17.2c0,3.1,2.6,5.7,5.7,5.7h0.6c3.1,0,5.7-2.6,5.7-5.7v-36.7v-1.3L124.5,338.7L124.5,338.7L124.5,338.7z"/>
	</g>
</g>
</svg>
